<svg xmlns="http://www.w3.org/2000/svg" xmlns:xlink="http://www.w3.org/1999/xlink" version="1.1" enable-background="new 0 0 283.5 68" xml:space="preserve" width="283.0534352478769" height="34.52671762393845" style=""><rect id="backgroundrect" width="100%" height="100%" x="0" y="0" fill="none" stroke="none" class="selected" style=""/>




















<g class="currentLayer" style=""><title>Layer 1</title><path fill="#FFFFFF" d="M5.5,27.3l0-21.5l27.6,0c0-5.2-4.3-5.5-7.3-5.5H7.7c-3,0-5,0.5-6.1,1.6C0.5,3,0,5,0,8v17.1  c0,3,0.5,5,1.6,6.1c1.1,1.1,3.1,1.6,6.1,1.6l0,0l0,0h18.1c3,0,7.3-0.3,7.3-5.5L5.5,27.3z" id="svg_13"/><path fill="#FFFFFF" d="M90.4,27.3l0-27.1c-1.7,0-2.8,0.3-3.9,1.4C85.4,2.8,84.9,5,84.9,8v17.1c0,3,0.5,5,1.6,6.1  c1.1,1.1,3.1,1.6,6.1,1.6l0,0l0,0h15.1c3,0,7.3-0.2,7.3-5.4L90.4,27.3z" id="svg_14"/><path fill="#FFFFFF" d="M126.3,27.3l0-27.1c-1.7,0-2.8,0.3-3.9,1.4c-1.1,1.1-1.6,3.3-1.6,6.3v17.1c0,3,0.5,5,1.6,6.1  c1.1,1.1,3.1,1.6,6.1,1.6l0,0l0,0h15.1c3,0,7.3-0.2,7.3-5.4L126.3,27.3z" id="svg_15"/><path fill="#FFFFFF" d="M162.9,32.8l0-32.6c-1.7,0-2.8,0.3-3.9,1.4c-1.1,1.1-1.6,3.3-1.6,6.3v24.8L162.9,32.8z" id="svg_16"/><path fill="#FFFFFF" d="M198.4,13.2l-20.3,0l0-7.4l27.4,0c0-5.2-4.3-5.5-7.3-5.5h-17.9c-3,0-5,0.5-6.1,1.6C173.1,3,172.6,5,172.6,8  c0,0,0,5.1,0,5.1c0.1,5.1,4.4,5.4,7.3,5.4l20.3,0v8.9l-27.6,0c0,5.2,4.3,5.4,7.3,5.4H198c3,0,5-0.5,6.1-1.6c1.1-1.1,1.6-3.1,1.6-6.1  l0-6.5C205.6,13.5,201.3,13.2,198.4,13.2z" id="svg_17"/><path fill="#FFFFFF" d="M73.8,32.8l5.9,0c0,0-14.9-27.4-16.1-29.6C62.4,1,60.5,0,59,0l0,0h0h0l0,0c-1.6,0-3.4,1-4.6,3.2  c-1.2,2.2-16.1,29.6-16.1,29.6l5.9,0l4-7.3h21.7L73.8,32.8z M50.8,20.5L59,5.3l8.2,15.1H50.8z" id="svg_18"/><path fill="#FFFFFF" d="M277.6,32.8l5.9,0c0,0-14.9-27.4-16.1-29.6C266.2,1,264.3,0,262.8,0l0,0h0h0l0,0c-1.6,0-3.4,1-4.6,3.2  c-1.2,2.2-16.1,29.6-16.1,29.6l5.9,0l4-7.3h21.7L277.6,32.8z M254.6,20.5l8.2-15.1l8.2,15.1H254.6z" id="svg_19"/><path fill="#FFFFFF" d="M244.7,5.7c0-5.2-4.3-5.5-7.3-5.5H231h-5.5H219c-3,0-7.3,0.3-7.3,5.5h13.7l0,27h5.5l0-27H244.7z" id="svg_20"/></g></svg>