<?xml version="1.0" encoding="utf-8"?>
<!-- Generator: Adobe Illustrator 17.1.0, SVG Export Plug-In . SVG Version: 6.00 Build 0)  -->
<!DOCTYPE svg PUBLIC "-//W3C//DTD SVG 1.1//EN" "http://www.w3.org/Graphics/SVG/1.1/DTD/svg11.dtd">
<svg version="1.1" id="Lager_1" xmlns="http://www.w3.org/2000/svg" xmlns:xlink="http://www.w3.org/1999/xlink" x="0px" y="0px"
	 viewBox="0 0 203.7 133.9" enable-background="new 0 0 203.7 133.9" xml:space="preserve">
<g>
	<path fill="#3C3C3C" d="M51.4,103.1c-1.2,0-2.2,1-2.2,2.2v0.7h-8.3c0,0,0,0-0.1,0l0-13.4c1.6-8,2-12.8-0.2-15.4
		c-0.7-0.8-1.9-1.8-4-1.8c-8.7,0-9.1,6.9-9.4,11.4c-0.3,4.7-0.6,7.3-4.2,8V56.4h11.2c1.2,0,2.2-1,2.2-2.2s-1-2.2-2.2-2.2H20.8
		c-1.2,0-2.2,1-2.2,2.2v16.6c-8.4,8.8-18.3,20-18.3,23.6c0,12.2,5.7,21.6,7.7,24.6c-1.1,3.8-3.6,11.3-3.6,11.4
		c-0.4,1.2,0.2,2.5,1.4,2.9c0.2,0.1,0.5,0.1,0.7,0.1c0.9,0,1.8-0.6,2.1-1.5c0.1-0.4,3.2-9.3,4-12.7c0.2-0.7,0-1.4-0.4-1.9
		c-0.1-0.1-7.4-9.8-7.4-22.6c0.4-1.9,7-9.8,13.9-17.2v20.2c0,1.2,1,2.2,2.2,2.2c10.2,0,10.6-7.5,10.9-12.4c0.3-5.4,0.8-7.2,4.9-7.2
		c0.2,0,0.5,0,0.6,0.1c0.8,1,0.5,5-0.8,11.9c0,0.1,0,0.3,0,0.4l0,18.4c-0.7,3.5-2.4,5-4.3,6.7c-2.8,2.5-5.9,5.4-5.9,13.3
		c0,1.2,1,2.2,2.2,2.2s2.2-1,2.2-2.2c0-5.9,2-7.7,4.4-9.9c2.2-2,4.8-4.3,5.7-9.4c0-0.1,0-0.3,0-0.4l0-0.6c0,0,0,0,0,0h10.6
		c1.2,0,2.2-1,2.2-2.2v-3C53.6,104.2,52.6,103.1,51.4,103.1z"/>
	<path fill="#3C3C3C" d="M46.9,56.3l2.2,0v36.3c0,1.2,1,2.2,2.2,2.2s2.2-1,2.2-2.2V54.1c0-1.2-1-2.2-2.2-2.2l-4.4,0c0,0,0,0,0,0
		c-1.2,0-2.2,1-2.2,2.2C44.6,55.3,45.6,56.3,46.9,56.3z"/>
	<path fill="#3C3C3C" d="M59.3,16.9c1.2,0,2.2-1,2.2-2.2V4.5H166v10.2c0,1.2,1,2.2,2.2,2.2s2.2-1,2.2-2.2V2.2c0-1.2-1-2.2-2.2-2.2
		h-109c-1.2,0-2.2,1-2.2,2.2v12.4C57.1,15.9,58.1,16.9,59.3,16.9z"/>
	<path fill="#3C3C3C" d="M201,51.2h-7.4c-1.2,0-2.2,1-2.2,2.2s1,2.2,2.2,2.2h5.1v61.5h-44.3v-11.8c0-1.2-1-2.2-2.2-2.2
		s-2.2,1-2.2,2.2v14.1c0,1.2,1,2.2,2.2,2.2H201c1.2,0,2.2-1,2.2-2.2v-66C203.3,52.3,202.3,51.2,201,51.2z"/>
	<path fill="#3C3C3C" d="M152.1,94.9c1.2,0,2.2-1,2.2-2.3l0-36.9h26.4c1.2,0,2.2-1,2.2-2.2s-1-2.2-2.2-2.2h-10.2V27.4
		c0-1.2-1-2.2-2.2-2.2s-2.2,1-2.2,2.2v23.8h-2.8V9.3c0-1.2-1-2.2-2.2-2.2H66.6c-1.2,0-2.2,1-2.2,2.2v54.2c0,1.2,1,2.2,2.2,2.2h83.3
		l0,5.8h-25c-1.2,0-2.2,1-2.2,2.2V85c0,1.2,1,2.2,2.2,2.2h8.8c0.5,0,1,0.4,1,0.8s-0.4,0.8-1,0.8H94.2c-0.5,0-1-0.4-1-0.8
		s0.4-0.8,1-0.8h8.8c1.2,0,2.2-1,2.2-2.2V73.8c0-1.2-1-2.2-2.2-2.2H61.6v-44c0-1.2-1-2.2-2.2-2.2s-2.2,1-2.2,2.2v46.2
		c0,1.2,1,2.2,2.2,2.2h41.5v6.8h-6.6c-3,0-5.5,2.4-5.5,5.3s2.4,5.3,5.5,5.3h39.5c3,0,5.5-2.4,5.5-5.3s-2.4-5.3-5.5-5.3h-6.5V76h22.7
		l0,16.6C149.9,93.9,150.9,94.9,152.1,94.9z M68.8,61.3V11.6h89.9v39.7h-6.6c-0.6,0-1.2,0.2-1.6,0.7s-0.7,1-0.7,1.6l0,7.8H68.8z"/>
	<path fill="#3C3C3C" d="M40.6,22.8c0.4,0,0.8-0.2,1.1-0.4c0.3-0.3,0.4-0.7,0.4-1.1c0-0.4-0.2-0.8-0.4-1.1c-0.6-0.6-1.6-0.6-2.1,0
		c-0.3,0.3-0.4,0.7-0.4,1.1c0,0.4,0.2,0.8,0.4,1.1C39.8,22.6,40.2,22.8,40.6,22.8z"/>
	<path fill="#3C3C3C" d="M46.8,22.8c0.8,0,1.5-0.7,1.5-1.5c0-0.8-0.7-1.5-1.5-1.5c-0.8,0-1.5,0.7-1.5,1.5
		C45.3,22.1,46,22.8,46.8,22.8z"/>
	<path fill="#3C3C3C" d="M57.7,21.3c0,0.8,0.7,1.5,1.5,1.5c0.8,0,1.5-0.7,1.5-1.5c0-0.8-0.7-1.5-1.5-1.5
		C58.4,19.8,57.7,20.4,57.7,21.3z"/>
	<path fill="#3C3C3C" d="M53.1,19.8c-0.8,0-1.5,0.7-1.5,1.5c0,0.8,0.7,1.5,1.5,1.5c0.8,0,1.5-0.7,1.5-1.5
		C54.6,20.4,54,19.8,53.1,19.8z"/>
	<path fill="#3C3C3C" d="M40.6,29.3c0.4,0,0.8-0.2,1.1-0.4c0.6-0.6,0.6-1.6,0-2.1c-0.3-0.3-0.7-0.4-1.1-0.4c-0.4,0-0.8,0.2-1.1,0.4
		c-0.3,0.3-0.4,0.7-0.4,1.1c0,0.4,0.2,0.8,0.4,1.1C39.8,29.1,40.2,29.3,40.6,29.3z"/>
	<path fill="#3C3C3C" d="M40.6,41.8c0.8,0,1.5-0.7,1.5-1.5c0-0.8-0.7-1.5-1.5-1.5c-0.8,0-1.5,0.7-1.5,1.5
		C39.1,41.1,39.8,41.8,40.6,41.8z"/>
	<path fill="#3C3C3C" d="M40.6,35.5c0.8,0,1.5-0.7,1.5-1.5c0-0.8-0.7-1.5-1.5-1.5c-0.8,0-1.5,0.7-1.5,1.5
		C39.1,34.9,39.8,35.5,40.6,35.5z"/>
	<path fill="#3C3C3C" d="M40.6,48c0.4,0,0.8-0.2,1.1-0.4c0.6-0.6,0.6-1.6,0-2.1C41.3,45.2,41,45,40.6,45c-0.4,0-0.8,0.2-1.1,0.4
		c-0.3,0.3-0.4,0.7-0.4,1.1c0,0.4,0.2,0.8,0.4,1.1C39.8,47.9,40.2,48,40.6,48z"/>
	<path fill="#3C3C3C" d="M40.6,55c0.4,0,0.8-0.2,1.1-0.4c0.6-0.6,0.6-1.6,0-2.1C41.3,52.2,41,52,40.6,52c-0.4,0-0.8,0.2-1.1,0.4
		c-0.3,0.3-0.4,0.7-0.4,1.1c0,0.4,0.2,0.8,0.4,1.1C39.8,54.8,40.2,55,40.6,55z"/>
	<path fill="#3C3C3C" d="M187.2,22.8c0.4,0,0.8-0.2,1.1-0.4c0.3-0.3,0.4-0.7,0.4-1.1c0-0.4-0.2-0.8-0.4-1.1c-0.6-0.6-1.6-0.6-2.1,0
		c-0.3,0.3-0.4,0.7-0.4,1.1c0,0.4,0.2,0.8,0.4,1.1C186.4,22.6,186.8,22.8,187.2,22.8z"/>
	<path fill="#3C3C3C" d="M180.9,22.8c0.8,0,1.5-0.7,1.5-1.5c0-0.8-0.7-1.5-1.5-1.5c-0.8,0-1.5,0.7-1.5,1.5
		C179.4,22.1,180,22.8,180.9,22.8z"/>
	<path fill="#3C3C3C" d="M168.6,19.8c-0.8,0-1.5,0.7-1.5,1.5c0,0.8,0.7,1.5,1.5,1.5c0.8,0,1.5-0.7,1.5-1.5
		C170.1,20.4,169.4,19.8,168.6,19.8z"/>
	<path fill="#3C3C3C" d="M174.6,22.8c0.8,0,1.5-0.7,1.5-1.5c0-0.8-0.7-1.5-1.5-1.5c-0.8,0-1.5,0.7-1.5,1.5
		C173.1,22.1,173.8,22.8,174.6,22.8z"/>
	<path fill="#3C3C3C" d="M187.2,29.3c0.4,0,0.8-0.2,1.1-0.4c0.3-0.3,0.4-0.7,0.4-1.1c0-0.4-0.2-0.8-0.4-1.1
		c-0.3-0.3-0.7-0.4-1.1-0.4c-0.4,0-0.8,0.2-1.1,0.4c-0.6,0.6-0.6,1.6,0,2.1C186.4,29.1,186.8,29.3,187.2,29.3z"/>
	<path fill="#3C3C3C" d="M187.1,32.5c-0.8,0-1.5,0.7-1.5,1.5c0,0.8,0.7,1.5,1.5,1.5c0.8,0,1.5-0.7,1.5-1.5
		C188.7,33.2,188,32.5,187.1,32.5z"/>
	<path fill="#3C3C3C" d="M187.1,38.8c-0.8,0-1.5,0.7-1.5,1.5c0,0.8,0.7,1.5,1.5,1.5c0.8,0,1.5-0.7,1.5-1.5
		C188.7,39.5,188,38.8,187.1,38.8z"/>
	<path fill="#3C3C3C" d="M187.2,48c0.4,0,0.8-0.2,1.1-0.4c0.3-0.3,0.4-0.7,0.4-1.1c0-0.4-0.2-0.8-0.4-1.1c-0.3-0.3-0.7-0.4-1.1-0.4
		c-0.4,0-0.8,0.2-1.1,0.4c-0.6,0.6-0.6,1.6,0,2.1C186.4,47.9,186.8,48,187.2,48z"/>
	<path fill="#3C3C3C" d="M187.2,55c0.4,0,0.8-0.2,1.1-0.4c0.3-0.3,0.4-0.7,0.4-1.1c0-0.4-0.2-0.8-0.4-1.1c-0.3-0.3-0.7-0.4-1.1-0.4
		c-0.4,0-0.8,0.2-1.1,0.4c-0.6,0.6-0.6,1.6,0,2.1C186.4,54.8,186.8,55,187.2,55z"/>
	<path fill="#3C3C3C" d="M62.4,97.9c-0.3,0.3-0.4,0.7-0.4,1.1c0,0.4,0.2,0.8,0.4,1.1c0.3,0.3,0.7,0.4,1.1,0.4c0.4,0,0.8-0.2,1.1-0.4
		c0.3-0.3,0.4-0.7,0.4-1.1c0-0.4-0.2-0.8-0.4-1.1C63.9,97.4,62.9,97.4,62.4,97.9z"/>
	<path fill="#3C3C3C" d="M69.7,97.5c-0.8,0-1.5,0.7-1.5,1.5c0,0.8,0.7,1.5,1.5,1.5c0.8,0,1.5-0.7,1.5-1.5
		C71.2,98.2,70.5,97.5,69.7,97.5z"/>
	<path fill="#3C3C3C" d="M76,97.5c-0.8,0-1.5,0.7-1.5,1.5c0,0.8,0.7,1.5,1.5,1.5c0.8,0,1.5-0.7,1.5-1.5C77.5,98.2,76.8,97.5,76,97.5
		z"/>
	<path fill="#3C3C3C" d="M81.1,97.9c-0.3,0.3-0.4,0.7-0.4,1.1c0,0.4,0.2,0.8,0.4,1.1c0.3,0.3,0.7,0.4,1.1,0.4c0.4,0,0.8-0.2,1.1-0.4
		c0.3-0.3,0.4-0.7,0.4-1.1c0-0.4-0.2-0.8-0.4-1.1C82.7,97.4,81.7,97.4,81.1,97.9z"/>
	<path fill="#3C3C3C" d="M49.8,99c0,0.8,0.7,1.5,1.5,1.5c0.8,0,1.5-0.7,1.5-1.5c0-0.8-0.7-1.5-1.5-1.5C50.5,97.5,49.8,98.2,49.8,99z
		"/>
	<path fill="#3C3C3C" d="M56.5,97.9C56.2,98.2,56,98.6,56,99c0,0.4,0.2,0.8,0.4,1.1c0.3,0.3,0.7,0.4,1.1,0.4c0.4,0,0.8-0.2,1.1-0.4
		c0.3-0.3,0.4-0.7,0.4-1.1c0-0.4-0.2-0.8-0.4-1.1C58,97.4,57,97.4,56.5,97.9z"/>
	<path fill="#3C3C3C" d="M88.4,97.5c-0.4,0-0.8,0.2-1.1,0.4c-0.6,0.6-0.6,1.6,0,2.1c0.3,0.3,0.7,0.4,1.1,0.4c0.4,0,0.8-0.2,1.1-0.4
		c0.3-0.3,0.4-0.7,0.4-1.1c0-0.4-0.2-0.8-0.4-1.1C89.1,97.7,88.7,97.5,88.4,97.5z"/>
	<path fill="#3C3C3C" d="M93.8,97.9c-0.3,0.3-0.4,0.7-0.4,1.1c0,0.4,0.2,0.8,0.4,1.1c0.3,0.3,0.7,0.4,1.1,0.4c0.4,0,0.8-0.2,1.1-0.4
		c0.3-0.3,0.4-0.7,0.4-1.1c0-0.4-0.2-0.8-0.4-1.1C95.4,97.4,94.4,97.4,93.8,97.9z"/>
	<path fill="#3C3C3C" d="M107.4,97.5c-0.8,0-1.5,0.7-1.5,1.5c0,0.8,0.7,1.5,1.5,1.5c0.8,0,1.5-0.7,1.5-1.5
		C108.9,98.2,108.2,97.5,107.4,97.5z"/>
	<path fill="#3C3C3C" d="M101.1,97.5c-0.8,0-1.5,0.7-1.5,1.5c0,0.8,0.7,1.5,1.5,1.5c0.8,0,1.5-0.7,1.5-1.5
		C102.6,98.2,102,97.5,101.1,97.5z"/>
	<path fill="#3C3C3C" d="M112.6,97.9c-0.3,0.3-0.4,0.7-0.4,1.1c0,0.4,0.2,0.8,0.4,1.1c0.3,0.3,0.7,0.4,1.1,0.4
		c0.4,0,0.8-0.2,1.1-0.4c0.3-0.3,0.4-0.7,0.4-1.1c0-0.4-0.2-0.8-0.4-1.1C114.1,97.4,113.1,97.4,112.6,97.9z"/>
	<path fill="#3C3C3C" d="M119.9,97.5c-0.4,0-0.8,0.2-1.1,0.4c-0.6,0.6-0.6,1.6,0,2.1c0.3,0.3,0.7,0.4,1.1,0.4c0.4,0,0.8-0.2,1.1-0.4
		c0.3-0.3,0.4-0.7,0.4-1.1c0-0.4-0.2-0.8-0.4-1.1C120.7,97.7,120.3,97.5,119.9,97.5z"/>
	<path fill="#3C3C3C" d="M125.3,97.9c-0.3,0.3-0.4,0.7-0.4,1.1c0,0.4,0.2,0.8,0.4,1.1c0.3,0.3,0.7,0.4,1.1,0.4
		c0.4,0,0.8-0.2,1.1-0.4c0.3-0.3,0.4-0.7,0.4-1.1c0-0.4-0.2-0.8-0.4-1.1C126.9,97.4,125.9,97.4,125.3,97.9z"/>
	<path fill="#3C3C3C" d="M138.9,97.5c-0.8,0-1.5,0.7-1.5,1.5c0,0.8,0.7,1.5,1.5,1.5c0.8,0,1.5-0.7,1.5-1.5
		C140.4,98.2,139.8,97.5,138.9,97.5z"/>
	<path fill="#3C3C3C" d="M132.7,97.5c-0.8,0-1.5,0.7-1.5,1.5c0,0.8,0.7,1.5,1.5,1.5c0.8,0,1.5-0.7,1.5-1.5
		C134.2,98.2,133.5,97.5,132.7,97.5z"/>
	<path fill="#3C3C3C" d="M144.1,97.9c-0.3,0.3-0.4,0.7-0.4,1.1c0,0.4,0.2,0.8,0.4,1.1c0.3,0.3,0.7,0.4,1.1,0.4
		c0.4,0,0.8-0.2,1.1-0.4c0.3-0.3,0.4-0.7,0.4-1.1c0-0.4-0.2-0.8-0.4-1.1C145.7,97.4,144.7,97.4,144.1,97.9z"/>
	<path fill="#3C3C3C" d="M150.9,97.9c-0.3,0.3-0.4,0.7-0.4,1.1c0,0.4,0.2,0.8,0.4,1.1c0.3,0.3,0.7,0.4,1.1,0.4
		c0.4,0,0.8-0.2,1.1-0.4c0.3-0.3,0.4-0.7,0.4-1.1c0-0.4-0.2-0.8-0.4-1.1C152.5,97.4,151.5,97.4,150.9,97.9z"/>
</g>
</svg>
