<?xml version="1.0" encoding="utf-8"?>
<!-- Generator: Adobe Illustrator 17.1.0, SVG Export Plug-In . SVG Version: 6.00 Build 0)  -->
<!DOCTYPE svg PUBLIC "-//W3C//DTD SVG 1.1//EN" "http://www.w3.org/Graphics/SVG/1.1/DTD/svg11.dtd">
<svg version="1.1" id="Lager_1" xmlns="http://www.w3.org/2000/svg" xmlns:xlink="http://www.w3.org/1999/xlink" x="0px" y="0px"
	 viewBox="0 0 136.8 132.8" enable-background="new 0 0 136.8 132.8" xml:space="preserve">
<g>
	<path fill="#3C3C3C" d="M133.9,0H44.8c-1.7,0-3,1.3-3,3v36.4c0,1.7,1.3,3,3,3s3-1.3,3-3V6h83.1v83.1H93.7c-1.7,0-3,1.3-3,3
		s1.3,3,3,3h40.2c1.7,0,3-1.3,3-3V3C136.9,1.3,135.6,0,133.9,0z"/>
	<path fill="#3C3C3C" d="M79.7,50.5H46.6c-1.2,0-2.3,0.7-2.8,1.8c-0.5,1.1-0.3,2.4,0.6,3.2l8.9,9.5l-7,8.4l-43,0
		c-0.8,0-1.6,0.3-2.1,0.9s-0.9,1.3-0.9,2.1V130c0,1.7,1.3,3,3,3h53.6c1.7,0,3-1.3,3-3V88.1l8.5-6.8l9.1,9.8c0.8,0.9,2.1,1.2,3.3,0.7
		c1.1-0.5,1.9-1.6,1.9-2.8V53.5C82.7,51.8,81.4,50.5,79.7,50.5z M76.7,81.4l-5.8-6.2c-1.1-1.1-2.8-1.3-4.1-0.3l-7,5.6l-3,2.4l-3,2.4
		l-29.1,23.2l24.3-29l2.5-3l2.5-3l5.5-6.5c1-1.2,0.9-2.9-0.1-4l-6-6.4h23.2V81.4z"/>
</g>
</svg>
