<?xml version="1.0" encoding="utf-8"?>
<!-- Generator: Adobe Illustrator 17.1.0, SVG Export Plug-In . SVG Version: 6.00 Build 0)  -->
<!DOCTYPE svg PUBLIC "-//W3C//DTD SVG 1.1//EN" "http://www.w3.org/Graphics/SVG/1.1/DTD/svg11.dtd">
<svg version="1.1" id="Lager_1" xmlns="http://www.w3.org/2000/svg" xmlns:xlink="http://www.w3.org/1999/xlink" x="0px" y="0px"
	 viewBox="0 0 136.8 133.9" enable-background="new 0 0 136.8 133.9" xml:space="preserve">
<path fill="#3C3C3C" d="M121,101.2v-9.4c0-8.9-8.9-16.2-19.8-16.2s-19.8,7.3-19.8,16.2v25.2c0,5.6-6.2,10.2-13.8,10.2
	s-13.8-4.6-13.8-10.2v-40c21-1.5,37.7-19.1,37.7-40.5c0-13.5-6.9-26.3-18.1-33.8C73,1.2,71.6,0,69.8,0C67.7,0,66,1.7,66,3.9
	c0,2.1,1.7,3.9,3.9,3.9c0,0,0.1,0,0.1,0c9.7,6.4,15.7,17.2,15.7,28.9c0,19.1-15.6,34.7-34.7,34.7c-19.1,0-34.7-15.6-34.7-34.7
	c0-11.6,6-22.5,15.6-28.9c0,0,0.1,0,0.1,0c2.1,0,3.9-1.7,3.9-3.9C35.8,1.7,34.1,0,32,0c-1.8,0-3.2,1.2-3.6,2.8
	C17.1,10.3,10.2,23,10.2,36.6c0,21.4,16.6,39,37.7,40.5v40c0,8.9,8.9,16.2,19.8,16.2s19.8-7.3,19.8-16.2V91.9
	c0-5.6,6.2-10.2,13.8-10.2S115,86.2,115,91.9v9.4c-5.8,1.4-10.1,6.5-10.1,12.7c0,7.2,5.9,13.1,13.1,13.1s13.1-5.9,13.1-13.1
	C131.1,107.8,126.8,102.6,121,101.2z M118,121c-3.9,0-7.1-3.2-7.1-7.1c0-3.9,3.2-7.1,7.1-7.1s7.1,3.2,7.1,7.1
	C125.1,117.9,121.9,121,118,121z"/>
</svg>
